<?xml version="1.0" encoding="utf-8"?>
<!-- Svg Vector Icons : http://www.onlinewebfonts.com/icon -->
<!DOCTYPE svg PUBLIC "-//W3C//DTD SVG 1.1//EN" "http://www.w3.org/Graphics/SVG/1.1/DTD/svg11.dtd">
<svg version="1.1" xmlns="http://www.w3.org/2000/svg" xmlns:xlink="http://www.w3.org/1999/xlink" x="0px" y="0px" viewBox="0 0 1000 1000" enable-background="new 0 0 1000 1000" xml:space="preserve">
<metadata> Svg Vector Icons : http://www.onlinewebfonts.com/icon </metadata>
<g><g transform="translate(0.000000,511.000000) scale(0.100000,-0.100000)"><path d="M250.3,2329c-37.6-17.8-87-59.3-108.8-89C100,2184.6,100,2176.7,100,114v-2070.6l43.5-61.3c96.9-136.5-191.8-126.6,3634.8-126.6h3454.9l77.1,43.5c49.4,27.7,91,73.2,116.7,124.6c35.6,75.1,39.6,122.6,39.6,585.4v502.3l243.3,181.9C8079.6-429.8,8380.3-162.8,8928,377.1c755.4,745.6,945.3,990.8,967.1,1245.9c23.7,304.6-150.3,492.4-454.9,490.4c-162.2,0-280.8-53.4-518.1-229.4c-162.1-122.6-973-917.6-1283.5-1259.7l-170.1-187.9l-2,838.5c0,812.8-2,842.5-41.5,925.5c-27.7,59.3-65.3,98.9-118.7,124.6c-75.2,39.6-134.5,39.6-3532,39.6C523.2,2364.6,313.6,2362.6,250.3,2329z M7170,1672.4v-395.5H3778.4H386.8v395.5v395.5h3391.6H7170V1672.4z M9562.9,1791c61.3-61.3,53.4-187.9-21.7-308.5c-65.3-102.8-294.7-379.7-381.7-462.8l-53.4-47.5l-181.9,183.9l-182,181.9l108.8,98.9c150.3,136.5,413.3,334.2,484.5,365.9C9424.4,1842.5,9517.4,1836.5,9562.9,1791z M8722.4,938.7l178-180l-340.1-332.2c-381.7-371.8-840.5-771.3-1105.5-961.1c-191.8-136.5-431.1-272.9-464.7-261.1c-29.7,9.9,112.7,278.8,239.3,454.9c142.4,193.8,391.6,498.3,626.9,759.4c221.5,249.2,658.5,700.1,676.3,700.1C8540.4,1118.7,8625.5,1037.6,8722.4,938.7z M7170,523.4V66.6l-85-110.7c-148.3-193.8-253.1-359.9-328.3-516.2c-39.6-83-94.9-189.8-124.6-239.3c-73.2-126.6-85-201.7-43.5-286.8c67.2-144.4,213.6-166.1,389.6-61.3c207.6,126.6,191.8,152.3,191.8-302.6v-397.5H3778.4H386.8v1414v1414h3391.6H7170V523.4z"/><path d="M900.9,495.7V347.4h1552.4h1554.4l-5.9,144.4l-5.9,142.4l-1546.5,5.9l-1548.5,4V495.7z"/><path d="M4860.1-32.3l5.9-678.3l708-5.9l706-4v682.3V644h-711.9h-711.9L4860.1-32.3z M5647.2,470c0-49.4,11.9-59.3,77.1-81.1c71.2-19.8,199.7-136.5,199.7-180c0-7.9-47.5-29.7-102.8-47.5c-98.9-27.7-106.8-27.7-144.4,7.9c-49.4,45.5-158.2,53.4-174,11.9c-15.8-39.6,19.8-61.3,144.4-91c215.6-49.4,296.6-124.6,296.6-274.9c0-140.4-71.2-227.4-221.5-276.9c-63.3-21.7-75.2-33.6-75.2-83c0-53.4-5.9-57.4-69.2-57.4s-69.2,5.9-69.2,55.4c0,47.5-11.9,59.3-98.9,89c-96.9,35.6-180,114.7-205.7,203.7c-11.9,35.6,0,43.5,100.9,61.3c108.8,19.8,116.7,17.8,158.2-25.7c31.6-35.6,65.3-47.5,122.6-47.5c152.3,0,122.6,79.1-41.5,116.7c-57.3,11.9-140.4,43.5-183.9,67.2c-193.8,108.8-150.3,405.4,71.2,470.7c65.3,21.8,77.1,31.6,77.1,81.1c0,49.4,5.9,55.4,69.2,55.4S5647.2,519.4,5647.2,470z"/><path d="M900.9-196.4v-148.3h1552.4h1552.4v148.3v148.3H2453.4H900.9V-196.4z"/><path d="M3535.1-675c-55.4-25.7-87-73.2-183.9-268.9c-170.1-338.2-320.4-486.5-528-520.1L2746-1476l7.9-102.8c13.8-156.2,13.8-158.2,120.6-142.4c255.1,33.6,494.4,239.3,668.4,573.5c53.4,102.8,102.8,181.9,108.8,178c7.9-4,27.7-67.2,47.5-140.4c79.1-310.5,110.7-399.5,152.3-431.1c79.1-53.4,134.5-37.6,235.3,69.2c51.4,55.4,96.9,93,102.8,85c4-7.9,19.8-49.4,31.6-89c29.7-89,104.8-154.2,181.9-154.2c39.6,0,73.2,21.7,120.6,77.1l65.3,77.1l39.6-71.2c33.6-61.3,53.4-75.1,112.7-79.1c67.2-5.9,89,7.9,261,158.2c189.9,168.1,310.5,243.2,423.2,265c59.3,11.9,63.3,7.9,108.8-94.9c79.1-176,96.9-178,708-35.6l189.9,45.5l-29.7,120.6c-15.8,65.3-31.6,122.6-33.6,126.6c-2,2-128.6-21.7-278.8-55.4c-150.3-33.6-286.7-63.3-298.6-65.3c-13.8-2-41.5,27.7-61.3,65.3c-21.8,37.6-67.2,91-104.8,114.7c-57.4,41.5-85.1,45.5-195.8,37.6c-156.2-9.9-318.4-87-492.4-231.4l-118.7-98.9l-59.3,59.3c-71.2,73.2-176,79.1-276.9,17.8c-71.2-43.5-71.2-41.5-122.6,47.5c-23.7,43.5-134.5,92.9-203.7,92.9c-25.7,0-75.2-21.7-106.8-49.4l-57.4-49.4l-63.3,193.8c-33.6,104.8-73.2,205.7-87,221.5C3762.5-641.4,3651.8-617.7,3535.1-675z"/><path d="M900.9-888.6v-148.3h800.9h800.9v148.3v148.3h-800.9H900.9V-888.6z"/><path d="M9163.4,549.1c-474.6-472.7-530-535.9-530-593.3c0-83.1,59.3-142.4,142.4-142.4c57.3,0,120.6,55.4,593.3,530c575.5,573.5,583.4,585.4,480.5,686.2C9748.8,1132.5,9736.9,1124.6,9163.4,549.1z"/></g></g>
</svg>